name rise32.9588peak41.5061fall63.4684.mot
datacolumns 19
datarows 12
range 9.70996800000000 9.72829400000000
endheader
time	ground_force1_vx	ground_force1_vy	ground_force1_vz	ground_force1_px	ground_force1_py	ground_force1_pz	ground_force2_vx	ground_force2_vy	ground_force2_vz	ground_force2_px	ground_force2_py	ground_force2_pz	ground_torque1_x	ground_torque1_y	ground_torque1_z	ground_torque2_x	ground_torque2_y	ground_torque2_z	
9.70996800000000	-31.66053100000000	831.68702199999996	54.44483500000000	0.10074300000000	0.00000000000000	0.10902800000000	0.00000000000000	0.00000000000000	0.00000000000000	0.00000000000000	0.00000000000000	0.00000000000000	0.00000000000000	19.03008500000000	0.00000000000000	0.00000000000000	0.00000000000000	0.00000000000000	
9.71163500000000	-32.07953700000000	829.39907100000005	54.16784400000000	0.10006100000000	0.00000000000000	0.10886500000000	0.00000000000000	0.00000000000000	0.00000000000000	0.00000000000000	0.00000000000000	0.00000000000000	0.00000000000000	18.94537700000000	0.00000000000000	0.00000000000000	0.00000000000000	0.00000000000000	
9.71329600000000	-32.52441500000000	826.96584700000005	53.87199100000000	0.09937600000000	0.00000000000000	0.10869900000000	-1.44726000000000	3.52603100000000	0.43781500000000	0.00000000000000	0.00000000000000	0.00000000000000	0.00000000000000	18.86372000000000	0.00000000000000	0.00000000000000	0.04225200000000	0.00000000000000	
9.71496200000000	-32.99559900000000	824.38723100000004	53.55710500000000	0.09868900000000	0.00000000000000	0.10853100000000	-2.36994800000000	6.83318300000000	0.75507600000000	0.00000000000000	0.00000000000000	0.00000000000000	0.00000000000000	18.78524700000000	0.00000000000000	0.00000000000000	0.08473800000000	0.00000000000000	
9.71663400000000	-33.49342800000000	821.66314799999998	53.22304300000000	0.09800000000000	0.00000000000000	0.10836100000000	-3.42480700000000	10.83508800000000	1.12512000000000	0.00000000000000	0.00000000000000	0.00000000000000	0.00000000000000	18.71007100000000	0.00000000000000	0.00000000000000	0.13627800000000	0.00000000000000	
9.71829900000000	-34.01814000000000	818.79355799999996	52.86969500000000	0.09730800000000	0.00000000000000	0.10818800000000	-4.58313000000000	15.49117300000000	1.53995900000000	0.00000000000000	0.00000000000000	0.00000000000000	0.00000000000000	18.63828600000000	0.00000000000000	0.00000000000000	0.19630700000000	0.00000000000000	
9.71996300000000	-34.56986500000000	815.77844800000003	52.49697700000000	0.09661300000000	0.00000000000000	0.10801200000000	-5.80811700000000	20.73052100000000	1.98868700000000	0.00000000000000	0.00000000000000	0.00000000000000	0.00000000000000	18.56996700000000	0.00000000000000	0.00000000000000	0.26382900000000	0.00000000000000	
9.72162800000000	-35.14862600000000	812.61783100000002	52.10484000000000	0.09591500000000	0.00000000000000	0.10783400000000	-7.05728800000000	26.45727400000000	2.45818400000000	0.33239100000000	0.00000000000000	-0.06452500000000	0.00000000000000	18.50517000000000	0.00000000000000	0.00000000000000	0.69918900000000	0.00000000000000	
9.72330100000000	-35.75433300000000	809.31173899999999	51.69326200000000	0.09521300000000	0.00000000000000	0.10765400000000	-8.28558100000000	32.55875000000000	2.93408300000000	0.33509000000000	0.00000000000000	-0.06452300000000	0.00000000000000	18.44392900000000	0.00000000000000	0.00000000000000	0.86420300000000	0.00000000000000	
9.72496800000000	-36.38677800000000	805.86021500000004	51.26225400000000	0.09450800000000	0.00000000000000	0.10747100000000	-9.44874800000000	38.91519600000000	3.40184400000000	0.33749500000000	0.00000000000000	-0.06454500000000	0.00000000000000	18.38625800000000	0.00000000000000	0.00000000000000	1.03472800000000	0.00000000000000	
9.72662600000000	-37.04564000000000	802.26331200000004	50.81186000000000	0.09379800000000	0.00000000000000	0.10728500000000	-10.50658500000000	45.40977100000000	3.84781900000000	0.33964900000000	0.00000000000000	-0.06458900000000	0.00000000000000	18.33215000000000	0.00000000000000	0.00000000000000	1.20657900000000	0.00000000000000	
9.72829400000000	-37.73047200000000	798.52108799999996	50.34215500000000	0.09308400000000	0.00000000000000	0.10709700000000	-11.42557700000000	51.93745700000000	4.26015200000000	0.34158400000000	0.00000000000000	-0.06465100000000	0.00000000000000	18.28157600000000	0.00000000000000	0.00000000000000	1.37582700000000	0.00000000000000	
